<svg width="104" height="104" viewBox="0 0 104 104" fill="none" xmlns="http://www.w3.org/2000/svg">
    <g filter="url(#filter0_d)">
        <circle cx="52" cy="52" r="42" fill="white"/>
    </g>
    <path d="M31.0791 50.5198C29.3069 50.5198 27.8772 50.1065 26.7935 49.2765C25.619 48.3605 25.0213 47.0173 25.0003 45.2506C24.9793 43.2635 26.0595 41.0628 28.2372 38.6486L28.1603 38.5728L27.7338 38.2147L28.0519 37.767L29.5865 35.6696L29.95 35.1599L30.4499 35.5491C34.9173 39.0447 37.1684 42.2716 37.1964 45.2368C37.2069 46.1047 37.0461 46.8968 36.7105 47.6097C36.3749 48.3226 35.8681 48.9356 35.1899 49.4453C34.2251 50.172 32.8514 50.5301 31.0791 50.5198ZM30.9428 41.0421C29.4012 42.5196 28.6392 43.8971 28.6462 45.1748C28.6462 45.6845 28.8245 46.0599 29.1775 46.3044C29.5306 46.549 30.1598 46.6729 31.0616 46.6729C31.995 46.6729 32.6416 46.5593 33.0087 46.3285C33.3722 46.0978 33.5575 45.7603 33.5575 45.3091C33.5785 44.0211 32.7046 42.5988 30.9428 41.0421Z" fill="#DF5B5B"/>
    <path d="M39.4509 42.6435L41.7301 41.3417L42.4432 40.9387L42.6249 41.7308C42.8976 42.888 43.2436 44.2828 43.6596 45.9083C43.7086 46.0977 43.8938 46.263 44.2084 46.4008C44.523 46.542 45.0299 46.6109 45.729 46.6109H46.3512C46.5959 46.6109 46.8126 46.6694 47.0049 46.7899C47.4523 47.0586 47.6725 47.582 47.6725 48.3638V48.8735C47.6725 49.6105 47.4593 50.1168 47.0328 50.3854C46.8301 50.5163 46.5959 50.5817 46.3337 50.5817H45.8024C44.9005 50.5817 44.1665 50.4612 43.6002 50.2235C43.0514 52.9787 41.8699 55.0588 40.0522 56.4605C38.2345 57.8622 35.826 58.5682 32.8268 58.5785H32.7814H32.3724L32.2221 58.2031L31.3866 56.1677L31.0825 55.4032L31.918 55.3446C34.5327 55.1656 36.5077 54.5353 37.8465 53.4574C39.1853 52.3794 39.9473 50.8331 40.1396 48.815C40.2305 47.8679 39.9054 46.0357 39.1678 43.3185L39.0454 42.8708L39.4509 42.6435Z" fill="#DF5B5B"/>
    <path d="M50.2872 50.5819H46.1694C45.9177 50.5819 45.687 50.5165 45.4842 50.3856C45.0473 50.117 44.8306 49.6107 44.8306 48.8737V48.364C44.8306 47.5857 45.0543 47.0622 45.4982 46.7902C45.6905 46.6696 45.9142 46.6111 46.1659 46.6111H50.3011C50.413 46.6111 50.5249 46.6249 50.6367 46.649C50.7486 46.6731 50.8535 46.7213 50.9548 46.7902C51.0877 46.8694 51.1995 46.9658 51.2904 47.0829C51.3813 47.1966 51.4512 47.3274 51.5036 47.4721C51.5526 47.6167 51.5875 47.7579 51.6015 47.8991C51.6155 48.0403 51.626 48.1953 51.626 48.364V48.8737C51.626 49.2147 51.5805 49.5143 51.4896 49.7726C51.3988 50.0309 51.231 50.2375 50.9898 50.3856C50.9199 50.4269 50.843 50.4614 50.7626 50.4889C50.6822 50.5199 50.6018 50.5406 50.5284 50.5578C50.448 50.5716 50.3676 50.5819 50.2872 50.5819Z" fill="#DF5B5B"/>
    <path d="M57.2785 49.2316C56.894 49.5519 56.4186 49.8102 55.8488 50.01C55.2825 50.2097 54.6393 50.3544 53.9262 50.4439C53.2131 50.5334 52.3951 50.5782 51.4723 50.5782H50.151C49.8678 50.5782 49.6232 50.5093 49.4204 50.3681C48.9939 50.0892 48.7807 49.5898 48.7807 48.87V48.3603C48.7807 47.5923 48.9974 47.0689 49.4344 46.7865C49.6371 46.6659 49.8643 46.6074 50.1195 46.6074H51.5317C52.4441 46.6074 53.0209 46.5867 53.2655 46.5488C54.2163 46.418 54.8001 46.1046 55.0133 45.6052C55.1951 45.1747 55.286 44.5686 55.286 43.7799C55.286 43.2909 55.265 42.795 55.2266 42.2887C55.1846 41.7859 55.1217 41.2796 55.0378 40.7699C54.9504 40.2602 54.8421 39.7471 54.7092 39.227L54.5589 38.6278L55.1671 38.4935L57.4602 37.9872L57.9916 37.8667L58.1733 38.3764C58.3551 38.9171 58.5089 39.4681 58.6383 40.0295C58.7641 40.5943 58.8585 41.1729 58.9179 41.7652C58.9773 42.3576 59.0088 42.9706 59.0088 43.6008C59.0123 46.3594 58.4355 48.2329 57.2785 49.2316ZM49.0848 52.9511L50.4341 54.2804C50.6194 54.4733 50.7138 54.6799 50.7173 54.9038C50.7208 55.1276 50.6264 55.3377 50.4341 55.5271L49.0184 56.9219C48.8227 57.1148 48.6059 57.2112 48.3682 57.2181C48.1305 57.2215 47.9138 57.1251 47.7181 56.9219L46.3024 55.5271C46.1066 55.3343 46.0157 55.1207 46.0262 54.8866C46.0367 54.6524 46.1451 54.432 46.3513 54.2288L47.6691 52.9304C47.8859 52.7272 48.1201 52.6273 48.3752 52.6273C48.6339 52.6308 48.8681 52.7376 49.0848 52.9511ZM53.9647 52.9511L55.314 54.2804C55.4992 54.4733 55.5936 54.6799 55.5971 54.9038C55.6006 55.1276 55.5062 55.3377 55.314 55.5271L53.8982 56.9219C53.7025 57.1148 53.4858 57.2112 53.2481 57.2181C53.0104 57.2215 52.7936 57.1251 52.5979 56.9219L51.1822 55.5271C51.0528 55.3997 50.969 55.2585 50.9305 55.1104C50.892 54.9623 50.899 54.8108 50.948 54.6627C50.9969 54.5146 51.0913 54.37 51.2311 54.2288L52.549 52.9304C52.7657 52.7272 52.9999 52.6273 53.2551 52.6273C53.5102 52.6273 53.7479 52.7376 53.9647 52.9511Z" fill="#DF5B5B"/>
    <path d="M61.0572 29.4809L63.6859 28.3582L64.5388 28V28.9126V49.9516V50.5508H63.9306H61.9556H61.3788L61.3473 49.9826L60.6937 30.0526L60.6797 29.6496L61.0572 29.4809Z" fill="#DF5B5B"/>
    <path d="M66.388 46.4181C67.4717 46.7763 68.7476 46.9519 70.2192 46.9416C72.4773 46.9416 74.0399 46.6282 74.8998 45.998C75.2354 45.7569 75.3996 45.5089 75.3996 45.2506C75.3996 44.3724 74.8508 43.2359 73.7567 41.8377C73.3023 41.2591 72.7605 40.6737 72.1383 40.0848C71.5161 39.4959 70.8135 38.9069 70.0339 38.318L69.5795 37.9874L69.8836 37.5087L71.3273 35.339L71.6769 34.7983L72.2082 35.1875C74.2636 36.6959 75.8541 38.2285 76.9797 39.7851C78.3255 41.6414 79.0001 43.4598 79.0001 45.2369C79.0001 47.0725 78.1437 48.4948 76.4309 49.5039C74.9208 50.4028 72.7815 50.847 70.0165 50.8367C68.5868 50.8367 67.2445 50.6163 65.9896 50.1789L65.5806 50.0411V49.6072L65.5945 46.9864V46.1633L66.388 46.4181Z" fill="#DF5B5B"/>
    <path d="M44.7433 70.0897C44.8937 70.0897 45.03 70.1276 45.1488 70.1999C45.425 70.3686 45.5648 70.6924 45.5648 71.1745V71.4914C45.5648 71.9494 45.432 72.2628 45.1698 72.4315C45.037 72.5108 44.8902 72.5521 44.7259 72.5521L44.1316 72.5418C42.681 72.528 41.5868 71.9287 40.8598 70.7406C40.4892 71.0368 39.9789 71.3398 39.3322 71.6429C38.0179 72.249 35.945 72.5521 33.1171 72.5521C30.9288 72.5521 29.2824 72.3213 28.1743 71.8633C27.255 71.4914 26.5384 70.9679 26.0245 70.2929C25.5072 69.6179 25.2101 68.8085 25.1297 67.8683C25.0912 67.4344 25.0982 66.9867 25.1471 66.5218C25.1961 66.0568 25.2939 65.5816 25.4408 65.0925L25.5351 64.7378L25.8952 64.8308L27.2445 65.1821L27.5661 65.2647L27.5206 65.5988C27.4752 65.8778 27.4402 66.1361 27.4123 66.3737C27.3843 66.6113 27.3633 66.8214 27.3563 67.0005C27.3459 67.1796 27.3459 67.3277 27.3528 67.4482C27.3843 68.1542 27.629 68.7121 28.0869 69.1254C28.5448 69.5387 29.2579 69.8107 30.2262 69.9485C30.8554 70.0346 31.8656 70.0793 33.2534 70.0793C35.7877 70.0793 37.5634 69.8452 38.5806 69.3733C39.6992 68.8464 40.3389 67.982 40.4962 66.7801L40.5347 66.4563H40.8737H42.0133H42.3629L42.3908 66.7904C42.4083 67.0625 42.4328 67.3173 42.4607 67.5515C42.4887 67.7857 42.5202 67.9992 42.5516 68.1886C42.5831 68.3781 42.6145 68.5434 42.6495 68.6914C42.6845 68.8361 42.7194 68.9601 42.7579 69.0599C42.8837 69.4078 43.0725 69.6626 43.3276 69.8279C43.5828 69.9933 43.9254 70.0759 44.3588 70.0828L44.7433 70.0897ZM32.6417 63.684L33.4806 64.5105C33.5959 64.6311 33.6554 64.7585 33.6554 64.8997C33.6589 65.0374 33.5994 65.1683 33.4806 65.2889L32.6032 66.1533C32.4809 66.2738 32.348 66.3324 32.2012 66.3358C32.0544 66.3392 31.9181 66.2773 31.7992 66.1533L30.9218 65.2889C30.7995 65.1683 30.7436 65.0374 30.7505 64.8928C30.7575 64.7482 30.824 64.6104 30.9533 64.4864L31.7713 63.6805C31.9041 63.5531 32.0509 63.4911 32.2117 63.4911C32.3585 63.4842 32.5053 63.5497 32.6417 63.684ZM35.6688 63.684L36.5078 64.5105C36.6231 64.6311 36.6825 64.7585 36.6825 64.8997C36.686 65.0374 36.6266 65.1683 36.5078 65.2889L35.6304 66.1533C35.508 66.2738 35.3752 66.3324 35.2284 66.3358C35.0816 66.3392 34.9452 66.2773 34.8264 66.1533L33.949 65.2889C33.8686 65.2096 33.8162 65.1235 33.7917 65.0306C33.7672 64.9376 33.7707 64.8446 33.8022 64.7516C33.8336 64.6586 33.8896 64.5691 33.977 64.483L34.7949 63.6771C34.9278 63.5497 35.0746 63.4877 35.2354 63.4877C35.3857 63.4842 35.5325 63.5497 35.6688 63.684Z" fill="#006A84"/>
    <path d="M44.6313 70.0898H45.208C45.3828 70.0898 45.5226 70.0588 45.624 69.9968C45.7254 69.9348 45.8093 69.8315 45.8792 69.6903C46.4874 68.4711 46.9593 67.5826 47.2949 67.0247C47.973 65.9226 48.826 65.3681 49.8502 65.3613C50.5038 65.3544 51.0806 65.561 51.5805 65.9777C52.0803 66.3944 52.4963 66.9971 52.8284 67.7858C53.1185 68.478 53.2584 69.1737 53.2514 69.8659C53.2514 70.4238 53.164 70.9094 52.9857 71.3261C52.9088 71.4949 52.8214 71.6499 52.72 71.8014C52.6187 71.9495 52.5068 72.0872 52.381 72.2147C52.2551 72.3421 52.1153 72.4523 51.965 72.5453C51.4931 72.8552 50.9058 73.0068 50.1997 72.9999C49.1545 72.9861 48.1723 72.6038 47.2495 71.8462C46.7706 72.318 46.04 72.5522 45.0507 72.5522H44.6278C44.4705 72.5522 44.3306 72.5108 44.2048 72.4316C43.9356 72.2629 43.7993 71.9529 43.7993 71.4914V71.1746C43.7993 70.6993 43.9356 70.3722 44.2048 70.2C44.3341 70.1276 44.474 70.0898 44.6313 70.0898ZM48.2527 69.8005C49.0147 70.4307 49.6579 70.7475 50.1857 70.7475C50.4934 70.7475 50.7206 70.6304 50.8639 70.3928C51.1156 69.983 51.0352 69.3596 50.6297 68.5159C50.4164 68.0682 50.1508 67.8271 49.8362 67.7927C49.5775 67.7617 49.3118 67.9614 49.0357 68.3953C48.7456 68.8568 48.4834 69.3252 48.2527 69.8005Z" fill="#006A84"/>
    <path d="M62.2982 67.0798C62.2982 67.5826 62.3366 68.0268 62.41 68.416C62.4799 68.7948 62.5813 69.1048 62.7211 69.3459C62.861 69.6007 63.0288 69.7867 63.2315 69.9038C63.4273 70.0209 63.6754 70.0794 63.9761 70.0794L64.3815 70.0898C64.4515 70.0898 64.5214 70.0966 64.5878 70.107C64.6577 70.1242 64.7206 70.1517 64.7765 70.1896C65.0597 70.3584 65.1995 70.6856 65.1995 71.1746V71.4914C65.1995 71.9495 65.0667 72.2629 64.8045 72.4316C64.6717 72.5108 64.5249 72.5522 64.3606 72.5522L63.9551 72.5418C63.2455 72.5349 62.6373 72.4006 62.1339 72.1423C61.6375 71.8771 61.2705 71.4845 61.0293 70.9714C60.9209 71.0885 60.8091 71.2021 60.6902 71.3055C59.7045 72.1596 58.3657 72.5832 56.6808 72.5797C55.4748 72.5728 54.4786 72.4523 53.6991 72.2181L53.4334 72.1354V71.8668V70.3343V69.8866L53.8878 69.9692C54.8631 70.1621 55.6741 70.2619 56.3207 70.2757L52.8112 61.3939L52.7168 61.1424L52.923 60.984L54.2444 59.9233L54.6673 59.5892L54.8386 60.0921L58.4426 69.9313C59.0228 69.8005 59.4563 69.4595 59.7429 68.9085C60.033 68.3402 60.1589 67.524 60.1204 66.4633L59.8932 59.82L59.8827 59.5686L60.1169 59.4653L61.7564 58.7593L62.2842 58.5354V59.1036V67.0798H62.2982Z" fill="#006A84"/>
    <path d="M64.2698 70.0898H65.0913C65.5073 70.0898 65.8428 70.0382 66.105 69.9314C66.3672 69.8247 66.5629 69.6697 66.6993 69.463C66.8356 69.2564 66.916 68.9843 66.9474 68.6503L67.1082 66.9111L67.1467 66.577H67.4858H68.5974H68.9259L68.9714 66.8939L69.2056 68.64C69.2755 69.1669 69.4328 69.5457 69.6775 69.773C69.9222 70.0037 70.2787 70.1174 70.7437 70.1174C70.9953 70.1174 71.2051 70.0726 71.3694 69.9865C71.5371 69.9004 71.6735 69.7489 71.7783 69.5354C71.8867 69.3218 71.9531 69.036 71.9846 68.6744L72.1629 66.9077L72.1908 66.5736H72.5404H73.652H73.9736L74.019 66.8904L74.2637 68.6744C74.3406 69.2116 74.4839 69.5974 74.7006 69.8212C74.9174 70.0485 75.2215 70.1587 75.6095 70.1518C75.8437 70.1518 76.0255 70.1139 76.1618 70.0416C76.2981 69.9659 76.4065 69.8522 76.4869 69.6972C76.7141 69.2564 76.7526 68.5814 76.6092 67.6722C76.5323 67.1832 76.41 66.577 76.2422 65.8504L76.1653 65.5266L76.4939 65.4164L77.976 64.9515L78.3256 64.8413L78.4479 65.1857C78.7241 65.9537 78.8988 66.8319 78.9653 67.8237C78.9792 68.0338 78.9827 68.237 78.9827 68.4264C78.9897 69.0773 78.9233 69.6559 78.7835 70.1656C78.6437 70.6753 78.4374 71.1058 78.1613 71.4571C77.8851 71.8084 77.5321 72.0804 77.1056 72.2664C76.6791 72.4524 76.1863 72.5454 75.634 72.5454C74.5468 72.5591 73.6974 72.201 73.0857 71.4777C72.5194 72.1975 71.7224 72.5557 70.6912 72.5557C69.4852 72.5488 68.5659 72.201 67.9367 71.5053C67.2341 72.2044 66.2693 72.5557 65.0493 72.5557H64.2489C64.0916 72.5557 63.9517 72.5144 63.8259 72.4352C63.5567 72.2664 63.4204 71.9564 63.4204 71.495V71.1781C63.4204 70.7029 63.5567 70.3757 63.8259 70.2035C63.9727 70.1277 64.1125 70.0898 64.2698 70.0898Z" fill="#006A84"/>
    <path d="M73.4106 63.2123V62.2136L77.8465 60.4331V61.425L73.4106 63.2123Z" fill="#006A84"/>
    <defs>
        <filter id="filter0_d" x="0" y="0" width="104" height="104" filterUnits="userSpaceOnUse" color-interpolation-filters="sRGB">
            <feFlood flood-opacity="0" result="BackgroundImageFix"/>
        </filter>
    </defs>
</svg>
